<svg xmlns="http://www.w3.org/2000/svg" viewBox="0 0 180 180" fill="none">
  <rect width="180" height="180" rx="40" fill="#7C3AED"/>
  <path d="M45 118V62h19c14 0 23 7.5 23 19.5 0 8-4.5 14.5-12 17.5l15 22.5h-14l-13.5-17H56V118H45zm14-30h4.5c7 0 10.5-3.5 10.5-8.5S70.5 71 63.5 71H59v17z" fill="white"/>
  <path d="M98 118l23.5-54h13l23.5 54h-14.5l-4.5-11.5h-22L112.5 118H98zm19-23.5h15l-7.5-19.5-7.5 19.5z" fill="white" opacity="0.95"/>
  <path d="M38 135h104" stroke="white" stroke-width="8" stroke-linecap="round" opacity="0.35"/>
  <path d="M42 128l27-36 18 18 32-40" stroke="#DDD6FE" stroke-width="9" stroke-linecap="round" stroke-linejoin="round"/>
</svg>
