<svg xmlns="http://www.w3.org/2000/svg" viewBox="0 0 32 32" fill="none">
  <rect width="32" height="32" rx="8" fill="#7C3AED"/>
  <path d="M8 21V11h3.4c2.5 0 4.1 1.3 4.1 3.4 0 1.4-.8 2.6-2.1 3.1l2.7 3.5h-2.5l-2.4-3.1H10.2V21H8zm2.6-5.3h.8c1.2 0 1.8-.6 1.8-1.5s-.6-1.5-1.8-1.5h-.8v3z" fill="white"/>
  <path d="M17.5 21l4.2-9.6h2.3l4.2 9.6h-2.6l-.8-2.1h-4l-.8 2.1h-2.5zm3.4-4.2h2.7l-1.4-3.5-1.3 3.5z" fill="white" opacity="0.95"/>
  <path d="M7 24h18" stroke="white" stroke-width="1.5" stroke-linecap="round" opacity="0.35"/>
  <path d="M8.5 22.5l4.8-6.4 4 4 7.2-8.8" stroke="#DDD6FE" stroke-width="1.8" stroke-linecap="round" stroke-linejoin="round"/>
</svg>
